<svg width="24" height="24" viewBox="0 0 24 24" fill="none" xmlns="http://www.w3.org/2000/svg">
<g clip-path="url(#clip0_11_2727)">
<path d="M18.95 1.09995C19.1 1.04995 19.25 1.09995 19.35 1.14995C19.6 1.29995 19.75 1.54995 19.8 1.89995L20.3 4.59995H21.15L20.65 1.74995C20.55 1.14995 20.25 0.699951 19.8 0.399951C19.45 0.199951 19.05 0.149951 18.7 0.249951L4.79999 4.54995L7.39999 4.59995L18.95 1.09995Z" fill="#F04B36"/>
<path d="M22.45 4.60005H21.2H20.35H7.45001L4.80001 4.55005C4.45001 4.65005 4.10001 4.90005 3.90001 5.30005C3.75001 5.55005 3.70001 5.80005 3.70001 6.10005V13C4.25001 12.85 4.85001 12.75 5.45001 12.75C8.90001 12.75 11.7 15.4501 11.7 18.7501C11.7 19.3001 11.65 19.8 11.5 20.3H22.45C23.15 20.3 23.75 19.6501 23.75 18.8501V15.6H17.65C17.4 15.6 17.25 15.4001 17.25 15.2V9.85005C17.25 9.60005 17.45 9.45005 17.65 9.45005H23.75V6.10005C23.75 5.30005 23.15 4.60005 22.45 4.60005Z" fill="#F7A93B"/>
<path d="M18.05 14.75H23.75V10.25H18.05V14.75ZM20.65 11.65C21.05 11.65 21.4 12.05 21.4 12.5C21.4 13 21.05 13.35 20.65 13.35C20.25 13.35 19.9 12.95 19.9 12.5C19.9 12.05 20.25 11.65 20.65 11.65Z" fill="#E77528"/>
<path d="M5.5 13.7C2.6 13.7 0.25 15.95 0.25 18.7C0.25 21.45 2.6 23.7 5.5 23.7C7.65 23.7 9.65 22.4 10.4 20.45C10.6 19.9 10.75 19.3 10.75 18.7C10.75 15.95 8.4 13.7 5.5 13.7ZM7.5 19.2H6V20.7C6 20.95 5.8 21.2 5.5 21.2C5.25 21.2 5 21 5 20.7V19.2H3.5C3.25 19.2 3 19 3 18.7C3 18.45 3.2 18.2 3.5 18.2H5V16.7C5 16.45 5.2 16.2 5.5 16.2C5.75 16.2 6 16.4 6 16.7V18.2H7.5C7.75 18.2 8 18.4 8 18.7C8 19 7.8 19.2 7.5 19.2Z" fill="#0DB89A"/>
</g>
<defs>
<clipPath id="clip0_11_2727">
<rect width="24" height="24" fill="white"/>
</clipPath>
</defs>
</svg>
