<svg width="24" height="24" viewBox="0 0 24 24" fill="none" xmlns="http://www.w3.org/2000/svg">
<path d="M21.812 21.1556H6.79876C6.51497 21.1556 6.28491 20.9255 6.28491 20.6418V13.5588C6.28491 13.275 6.51497 13.0449 6.79876 13.0449H21.812C22.0958 13.0449 22.3258 13.275 22.3258 13.5588V20.6418C22.3258 20.9255 22.0958 21.1556 21.812 21.1556Z" fill="#5A7A39"/>
<path d="M20.9556 20.2992H5.94237C5.65859 20.2992 5.42853 20.0691 5.42853 19.7853V12.7023C5.42853 12.4185 5.65859 12.1885 5.94237 12.1885H20.9556C21.2394 12.1885 21.4694 12.4185 21.4694 12.7023V19.7853C21.4694 20.0691 21.2394 20.2992 20.9556 20.2992Z" fill="#648940"/>
<path d="M20.0991 19.4427H5.08596C4.80218 19.4427 4.57211 19.2127 4.57211 18.9289V11.8459C4.57211 11.5621 4.80218 11.332 5.08596 11.332H20.0991C20.3829 11.332 20.6129 11.5621 20.6129 11.8459V18.9289C20.613 19.2127 20.383 19.4427 20.0991 19.4427Z" fill="#76A34F"/>
<path d="M19.9091 16.6848V14.0897C19.9091 14.0002 19.8401 13.9272 19.7509 13.9194C18.8541 13.8417 18.1395 13.1088 18.0651 12.1897C18.0579 12.1004 17.9845 12.031 17.8948 12.031H7.29022C7.2005 12.031 7.12719 12.1004 7.11997 12.1897C7.04553 13.1088 6.33097 13.8416 5.43416 13.9194C5.34509 13.9271 5.276 14.0002 5.276 14.0897V16.6848C5.276 16.7742 5.345 16.8472 5.43416 16.855C6.33097 16.9327 7.04553 17.6657 7.11997 18.5847C7.12719 18.674 7.20059 18.7434 7.29022 18.7434H17.8949C17.9847 18.7434 18.058 18.674 18.0652 18.5847C18.1396 17.6657 18.8542 16.9328 19.751 16.855C19.8401 16.8473 19.9091 16.7742 19.9091 16.6848Z" fill="#91B56B"/>
<path d="M12.5925 18.0339C14.0541 18.0339 15.239 16.849 15.239 15.3874C15.239 13.9258 14.0541 12.741 12.5925 12.741C11.1309 12.741 9.94604 13.9258 9.94604 15.3874C9.94604 16.849 11.1309 18.0339 12.5925 18.0339Z" fill="white"/>
<path d="M12.8544 17.0154H12.3306C11.8662 17.0154 11.4883 16.6376 11.4883 16.1731C11.4883 16.0696 11.5723 15.9856 11.6758 15.9856C11.7793 15.9856 11.8633 16.0696 11.8633 16.1731C11.8633 16.4307 12.073 16.6404 12.3306 16.6404H12.8544C13.112 16.6404 13.3216 16.4307 13.3216 16.1731V15.9112C13.3216 15.6536 13.112 15.444 12.8544 15.444H12.3306C11.8662 15.444 11.4883 15.0662 11.4883 14.6018C11.4883 14.1373 11.8662 13.7595 12.3306 13.7595H12.8544C13.3188 13.7595 13.6966 14.1373 13.6966 14.6018C13.6966 14.7053 13.6126 14.7893 13.5091 14.7893C13.4056 14.7893 13.3216 14.7053 13.3216 14.6018C13.3216 14.3441 13.112 14.1345 12.8544 14.1345H12.3306C12.073 14.1345 11.8633 14.3441 11.8633 14.6018C11.8633 14.8594 12.073 15.069 12.3306 15.069H12.8544C13.3188 15.069 13.6966 15.4468 13.6966 15.9112V16.1731C13.6967 16.6376 13.3188 17.0154 12.8544 17.0154Z" fill="#648940"/>
<path d="M12.5925 17.2772C12.489 17.2772 12.405 17.1932 12.405 17.0897V13.6851C12.405 13.5816 12.489 13.4976 12.5925 13.4976C12.696 13.4976 12.78 13.5816 12.78 13.6851V17.0897C12.78 17.1933 12.6961 17.2772 12.5925 17.2772Z" fill="#648940"/>
<path d="M6.2791 14.1268C8.82232 14.1268 10.884 12.0651 10.884 9.5219C10.884 6.97868 8.82232 4.91699 6.2791 4.91699C3.73588 4.91699 1.67419 6.97868 1.67419 9.5219C1.67419 12.0651 3.73588 14.1268 6.2791 14.1268Z" fill="#FFA91A"/>
<path d="M2.35968 9.70966C2.25646 9.70966 2.17218 9.62538 2.17218 9.52216C2.17218 9.41903 2.25646 9.33466 2.35968 9.33466C2.46281 9.33466 2.54718 9.41903 2.54718 9.52216C2.54718 9.62538 2.46281 9.70966 2.35968 9.70966ZM2.43093 8.96444C2.41968 8.96444 2.40749 8.96341 2.39531 8.96069C2.34562 8.95122 2.30343 8.92319 2.27531 8.88194C2.24718 8.84069 2.23687 8.79006 2.24624 8.74131C2.43468 7.77006 2.96999 6.89716 3.75562 6.28403C3.96187 6.12278 4.18499 5.98038 4.41656 5.86216C4.50656 5.81631 4.62281 5.85372 4.66874 5.94372C4.69218 5.98788 4.69593 6.03944 4.67999 6.08716C4.66499 6.13403 4.63218 6.17341 4.58718 6.19591C4.37624 6.30372 4.17374 6.43309 3.98624 6.57934C3.2729 7.13716 2.78531 7.92934 2.61468 8.81059V8.81256C2.59781 8.90059 2.52093 8.96444 2.43093 8.96444Z" fill="#FFC91D"/>
<path d="M8.9129 5.74561C9.43453 6.49214 9.74146 7.39973 9.74146 8.37942C9.74146 10.9227 7.67981 12.9842 5.13665 12.9842C4.15687 12.9842 3.24928 12.6773 2.50284 12.1557C3.33524 13.3469 4.71571 14.1267 6.27918 14.1267C8.82234 14.1267 10.884 12.065 10.884 9.52186C10.8839 7.95848 10.1041 6.57801 8.9129 5.74561Z" fill="#F79219"/>
<path d="M9.23652 5.99316C9.90787 6.79332 10.3127 7.82457 10.3127 8.9507C10.3127 11.4939 8.25102 13.5555 5.70787 13.5555C4.58174 13.5555 3.55049 13.1507 2.75034 12.4794C3.59502 13.4861 4.86205 14.1267 6.27909 14.1267C8.82224 14.1267 10.8839 12.0651 10.8839 9.52191C10.8839 8.10488 10.2433 6.83785 9.23652 5.99316Z" fill="#EF7816"/>
<path d="M6.69816 12.1238H5.85994C5.17876 12.1238 4.62469 11.5698 4.62469 10.8886C4.62469 10.7851 4.70869 10.7011 4.81219 10.7011C4.91569 10.7011 4.99969 10.7851 4.99969 10.8886C4.99969 11.363 5.38557 11.7488 5.85994 11.7488H6.69816C7.17254 11.7488 7.55841 11.363 7.55841 10.8886V10.4694C7.55841 9.99505 7.17254 9.60917 6.69816 9.60917H5.85994C5.17876 9.60917 4.62469 9.05511 4.62469 8.37392C4.62469 7.69273 5.17876 7.13867 5.85994 7.13867H6.69816C7.37935 7.13867 7.93341 7.69273 7.93341 8.37392C7.93341 8.47742 7.84941 8.56142 7.74591 8.56142C7.64241 8.56142 7.55841 8.47742 7.55841 8.37392C7.55841 7.89955 7.17254 7.51367 6.69816 7.51367H5.85994C5.38557 7.51367 4.99969 7.89955 4.99969 8.37392C4.99969 8.8483 5.38557 9.23417 5.85994 9.23417H6.69816C7.37935 9.23417 7.93341 9.78823 7.93341 10.4694V10.8886C7.93341 11.5698 7.37935 12.1238 6.69816 12.1238Z" fill="white"/>
<path d="M6.27911 12.5429C6.17561 12.5429 6.09161 12.4589 6.09161 12.3554V6.90723C6.09161 6.80373 6.17561 6.71973 6.27911 6.71973C6.38261 6.71973 6.46661 6.80373 6.46661 6.90723V12.3554C6.46661 12.459 6.38261 12.5429 6.27911 12.5429Z" fill="white"/>
<path d="M16.0218 10.0732C18.0179 10.0732 19.6361 8.45497 19.6361 6.45883C19.6361 4.46268 18.0179 2.84448 16.0218 2.84448C14.0256 2.84448 12.4074 4.46268 12.4074 6.45883C12.4074 8.45497 14.0256 10.0732 16.0218 10.0732Z" fill="#76A34F"/>
<path d="M18.5775 3.90312C18.4678 3.79343 18.3522 3.69321 18.2327 3.60059C19.332 5.01837 19.2319 7.06549 17.9302 8.3673C16.6284 9.66912 14.5812 9.76924 13.1635 8.66984C13.2562 8.78937 13.3563 8.90496 13.466 9.01465C14.8775 10.4261 17.1659 10.4261 18.5774 9.01465C19.9889 7.60315 19.989 5.31462 18.5775 3.90312Z" fill="#648940"/>
<path d="M15.6303 8.37421C15.4681 8.37421 15.3061 8.31233 15.1823 8.18868L13.9349 6.94124C13.6876 6.69383 13.6876 6.29277 13.9349 6.04536C14.1823 5.79805 14.5834 5.79805 14.8308 6.04536L15.6303 6.84496L17.2169 5.25824C17.4643 5.01093 17.8654 5.01093 18.1128 5.25824C18.3601 5.50564 18.3601 5.90671 18.1128 6.15411L16.0782 8.18868C15.9545 8.31233 15.7924 8.37421 15.6303 8.37421Z" fill="#FFC91D"/>
<path d="M15.3713 6.58616L14.8308 6.0455L14.8306 6.04541L15.3713 6.58616Z" fill="#377DE2"/>
<path d="M18.1128 5.25848C18.0674 5.2132 18.0158 5.17908 17.962 5.15039C18.09 5.39002 18.0558 5.69339 17.8537 5.89542L15.8192 7.92998C15.6954 8.05364 15.5334 8.11552 15.3712 8.11552C15.2091 8.11552 15.0471 8.05364 14.9233 7.92998L15.1822 8.18892C15.306 8.31258 15.468 8.37445 15.6302 8.37445C15.7924 8.37445 15.9544 8.31258 16.0781 8.18892L18.1127 6.15436C18.3602 5.90686 18.3602 5.50589 18.1128 5.25848Z" fill="#FFA91A"/>
</svg>
