<svg width="51" height="48" viewBox="0 0 51 48" fill="none" xmlns="http://www.w3.org/2000/svg">
<path d="M15.1645 17.4516L15.9534 17.2644V29.9788L13.6561 32.186L11.3588 30.9925V22.2669C11.3583 19.9738 12.9337 17.9808 15.1645 17.4516ZM3.03783 25.5421L0 25.091L3.00438 26.652L7.59899 29.039V21.0813L6.81015 21.2685C4.75767 21.7559 3.26361 23.4832 3.03783 25.5421ZM26.4782 19.866L24.3068 20.8542V13.447L23.518 13.6342C21.2871 14.1638 19.7122 16.1564 19.7122 18.4491V26.3663L24.3068 21.9519L26.4782 19.866Z" fill="#0874F2"/>
<path d="M15.1645 17.4516L15.9534 17.2644V29.9788L13.6561 32.186L11.3588 30.9925V22.2669C11.3583 19.9738 12.9337 17.9808 15.1645 17.4516ZM3.03783 25.5421L0 25.091L3.00438 26.652L7.59899 29.039V21.0813L6.81015 21.2685C4.75767 21.7559 3.26361 23.4832 3.03783 25.5421ZM26.4782 19.866L24.3068 20.8542V13.447L23.518 13.6342C21.2871 14.1638 19.7122 16.1564 19.7122 18.4491V26.3663L24.3068 21.9519L26.4782 19.866Z" fill="url(#paint0_linear_11_2921)"/>
<path d="M0 28.363L13.6556 48L50.5607 0L13.6556 35.4575L0 28.363Z" fill="#0874F2"/>
<path d="M0 28.363L13.6556 48L50.5607 0L13.6556 35.4575L0 28.363Z" fill="url(#paint1_linear_11_2921)"/>
<defs>
<linearGradient id="paint0_linear_11_2921" x1="14.2191" y1="37.7198" x2="13.1534" y2="21.1422" gradientUnits="userSpaceOnUse">
<stop stop-color="#0874F2"/>
<stop offset="1" stop-color="#0874F2" stop-opacity="0"/>
</linearGradient>
<linearGradient id="paint1_linear_11_2921" x1="28.299" y1="61.1366" x2="25.6056" y2="19.2402" gradientUnits="userSpaceOnUse">
<stop stop-color="#0874F2"/>
<stop offset="1" stop-color="#0874F2" stop-opacity="0"/>
</linearGradient>
</defs>
</svg>
