<svg width="24" height="24" viewBox="0 0 24 24" fill="none" xmlns="http://www.w3.org/2000/svg">
<g clip-path="url(#clip0_11_2813)">
<path d="M21.1539 22.0058H2.84605C1.8703 22.0058 1.07928 21.2147 1.07928 20.239V4.9943C1.07928 4.01855 1.8703 3.22754 2.84605 3.22754H21.1539C22.1297 3.22754 22.9207 4.01855 22.9207 4.9943V20.239C22.9207 21.2147 22.1297 22.0058 21.1539 22.0058Z" fill="url(#paint0_linear_11_2813)"/>
<path d="M20.7456 21.587H3.25433C2.32208 21.587 1.56631 20.8312 1.56631 19.899V5.33426C1.56631 4.40201 2.32203 3.64624 3.25433 3.64624H20.7456C21.6778 3.64624 22.4336 4.40196 22.4336 5.33426V19.899C22.4337 20.8313 21.6779 21.587 20.7456 21.587Z" fill="url(#paint1_linear_11_2813)"/>
<path d="M21.7369 8.15862L17.3333 0.531309C17.04 0.023231 16.3902 -0.150863 15.8821 0.142528L1.99786 8.15862H21.7369Z" fill="url(#paint2_linear_11_2813)"/>
<path d="M1.07928 14.2972H22.9207V8.51225C22.9207 7.78208 22.3288 7.19019 21.5986 7.19019H2.40135C1.67118 7.19019 1.07928 7.78208 1.07928 8.51225V14.2972Z" fill="url(#paint3_linear_11_2813)"/>
<path d="M1.07928 12.1215V20.2389C1.07928 21.2146 1.8703 22.0057 2.8461 22.0057H21.1539C22.1297 22.0057 22.9207 21.2147 22.9207 20.2389V12.1215C22.9207 11.5189 22.4321 11.0303 21.8294 11.0303H2.17053C1.56786 11.0303 1.07928 11.5188 1.07928 12.1215Z" fill="url(#paint4_linear_11_2813)"/>
<path d="M19.6256 7.93481V22.0058H21.1539C22.1297 22.0058 22.9207 21.2148 22.9207 20.239V11.2299L19.6256 7.93481Z" fill="url(#paint5_linear_11_2813)"/>
<path d="M18.1358 23.9867L2.80358 22.206C1.82071 22.0918 1.07928 21.2594 1.07928 20.2699V4.86255C1.07928 5.19367 1.32739 5.47221 1.65622 5.51041L18.5855 7.47663C19.5683 7.59081 20.3098 8.42327 20.3098 9.41275V22.0506C20.3098 23.2162 19.2936 24.1212 18.1358 23.9867Z" fill="url(#paint6_linear_11_2813)"/>
<path d="M18.1358 20.9092L2.80358 19.1285C1.82071 19.0143 1.07928 18.1819 1.07928 17.1924V20.2699C1.07928 21.2594 1.82071 22.0919 2.80358 22.206L18.1358 23.9867C19.2936 24.1212 20.3098 23.2162 20.3098 22.0506V18.9731C20.3098 20.1387 19.2936 21.0436 18.1358 20.9092Z" fill="url(#paint7_linear_11_2813)"/>
<path d="M2.4539 7.26401C2.44106 7.26401 2.42803 7.26326 2.41495 7.26185L1.71333 7.1847C1.51954 7.16337 1.37972 6.98909 1.40104 6.79535C1.42237 6.60162 1.59679 6.46193 1.79039 6.48307L2.49201 6.56023C2.68579 6.58156 2.82562 6.75584 2.80429 6.94957C2.78442 7.13028 2.63151 7.26401 2.4539 7.26401Z" fill="url(#paint8_linear_11_2813)"/>
<path d="M16.871 22.8238C16.8562 22.8238 16.8411 22.8229 16.826 22.821L15.4624 22.6476C15.2691 22.623 15.1322 22.4463 15.1568 22.2529C15.1814 22.0596 15.3581 21.9235 15.5515 21.9473L16.9151 22.1207C17.1084 22.1453 17.2454 22.322 17.2207 22.5154C17.198 22.6936 17.0461 22.8238 16.871 22.8238ZM18.2132 22.6491C18.0809 22.6491 17.9539 22.5743 17.8937 22.4465C17.8106 22.2702 17.8862 22.0599 18.0626 21.9769C18.4207 21.8081 18.69 21.5283 18.8015 21.2089C18.8657 21.025 19.0671 20.928 19.2511 20.9921C19.435 21.0564 19.5322 21.2577 19.4679 21.4417C19.2918 21.946 18.8996 22.3628 18.3634 22.6154C18.3148 22.6383 18.2637 22.6491 18.2132 22.6491ZM14.1438 22.4771C14.129 22.4771 14.1139 22.4761 14.0988 22.4742L12.7351 22.3008C12.5418 22.2762 12.4049 22.0995 12.4296 21.9061C12.4542 21.7128 12.6309 21.5767 12.8243 21.6005L14.1879 21.7739C14.3812 21.7985 14.5181 21.9752 14.4935 22.1686C14.4707 22.3468 14.3188 22.4771 14.1438 22.4771ZM11.4166 22.1302C11.4017 22.1302 11.3867 22.1292 11.3716 22.1274L10.0079 21.954C9.8146 21.9294 9.67768 21.7527 9.70233 21.5593C9.72694 21.366 9.90366 21.2292 10.097 21.2537L11.4607 21.4271C11.654 21.4517 11.7909 21.6284 11.7662 21.8218C11.7435 22 11.5915 22.1302 11.4166 22.1302ZM8.68922 21.7834C8.67441 21.7834 8.65937 21.7824 8.64423 21.7805L7.28054 21.6071C7.08718 21.5825 6.9503 21.4058 6.97496 21.2124C6.99957 21.0191 7.17633 20.8829 7.36965 20.9068L8.73333 21.0803C8.92669 21.1049 9.06357 21.2816 9.03891 21.475C9.01627 21.6532 8.8643 21.7834 8.68922 21.7834ZM5.96199 21.4366C5.94718 21.4366 5.93213 21.4356 5.91699 21.4337L4.5533 21.2603C4.35994 21.2357 4.22307 21.059 4.24772 20.8656C4.27233 20.6722 4.4491 20.5361 4.64241 20.56L6.0061 20.7334C6.19946 20.7581 6.33633 20.9347 6.31168 21.1281C6.28899 21.3064 6.13707 21.4366 5.96199 21.4366ZM19.2139 20.3127C19.0189 20.3127 18.861 20.1548 18.861 19.9598V18.5852C18.861 18.3903 19.0189 18.2323 19.2139 18.2323C19.4088 18.2323 19.5668 18.3903 19.5668 18.5852V19.9598C19.5668 20.1548 19.4089 20.3127 19.2139 20.3127ZM19.2139 17.5636C19.0189 17.5636 18.861 17.4056 18.861 17.2107V15.836C18.861 15.6411 19.0189 15.4831 19.2139 15.4831C19.4088 15.4831 19.5668 15.6411 19.5668 15.836V17.2107C19.5668 17.4056 19.4089 17.5636 19.2139 17.5636ZM19.2139 14.8144C19.0189 14.8144 18.861 14.6564 18.861 14.4614V13.0868C18.861 12.8919 19.0189 12.7339 19.2139 12.7339C19.4088 12.7339 19.5668 12.8919 19.5668 13.0868V14.4614C19.5668 14.6563 19.4089 14.8144 19.2139 14.8144ZM19.2139 12.0651C19.0189 12.0651 18.861 11.9072 18.861 11.7122V10.3376C18.861 10.1427 19.0189 9.98468 19.2139 9.98468C19.4088 9.98468 19.5668 10.1427 19.5668 10.3376V11.7122C19.5668 11.9071 19.4089 12.0651 19.2139 12.0651ZM18.7203 9.45678C18.6331 9.45678 18.5458 9.42467 18.4776 9.36003C18.216 9.11215 17.853 8.95423 17.4552 8.91528L17.4459 8.91429C17.2521 8.89343 17.1119 8.71939 17.1328 8.52561C17.1536 8.33178 17.3276 8.19153 17.5215 8.21248L17.5275 8.21314C18.0772 8.267 18.5882 8.49247 18.9631 8.84764C19.1047 8.9817 19.1107 9.20511 18.9766 9.34662C18.9071 9.41979 18.8138 9.45678 18.7203 9.45678ZM16.1176 8.76612C16.1048 8.76612 16.0918 8.76537 16.0787 8.76397L14.7123 8.61373C14.5186 8.5924 14.3787 8.41812 14.4001 8.22439C14.4214 8.03065 14.5958 7.8912 14.7894 7.91211L16.1558 8.06234C16.3495 8.08367 16.4894 8.25795 16.468 8.45168C16.4482 8.63234 16.2953 8.76612 16.1176 8.76612ZM13.385 8.46565C13.3721 8.46565 13.3591 8.4649 13.346 8.4635L11.9796 8.31326C11.7859 8.29194 11.646 8.11765 11.6673 7.92392C11.6886 7.73014 11.8633 7.59054 12.0567 7.61164L13.4231 7.76187C13.6168 7.7832 13.7567 7.95748 13.7354 8.15122C13.7155 8.33192 13.5626 8.46565 13.385 8.46565ZM10.6522 8.16523C10.6393 8.16523 10.6263 8.16448 10.6132 8.16308L9.24685 8.01284C9.05312 7.99151 8.91324 7.81723 8.93457 7.6235C8.95585 7.42976 9.13018 7.29017 9.32391 7.31122L10.6903 7.46145C10.884 7.48278 11.0239 7.65706 11.0026 7.85079C10.9827 8.03145 10.8298 8.16523 10.6522 8.16523ZM7.9194 7.86481C7.90655 7.86481 7.89352 7.86406 7.88044 7.86265L6.51408 7.71242C6.3203 7.69109 6.18047 7.51681 6.2018 7.32308C6.22308 7.12939 6.39722 6.98984 6.59115 7.01079L7.95751 7.16103C8.15124 7.18236 8.29112 7.35664 8.26979 7.55037C8.25001 7.73103 8.09705 7.86481 7.9194 7.86481ZM5.18663 7.56434C5.17379 7.56434 5.16076 7.56359 5.14768 7.56218L3.78132 7.41195C3.58758 7.39062 3.44771 7.21634 3.46904 7.02261C3.49037 6.82892 3.66455 6.68942 3.85838 6.71033L5.22474 6.86056C5.41852 6.88189 5.55835 7.05617 5.53702 7.2499C5.51719 7.43056 5.36424 7.56434 5.18663 7.56434Z" fill="url(#paint9_linear_11_2813)"/>
<path d="M3.23142 21.0894C3.21661 21.0894 3.20161 21.0885 3.18646 21.0866L2.4862 20.9975C2.29284 20.973 2.15592 20.7963 2.18057 20.6029C2.20514 20.4095 2.38186 20.2728 2.57521 20.2973L3.27548 20.3863C3.46884 20.4109 3.60576 20.5876 3.58111 20.7809C3.55842 20.9592 3.40645 21.0894 3.23142 21.0894Z" fill="url(#paint10_linear_11_2813)"/>
<path d="M16.1985 2.62811L13.9397 3.85726C13.6454 4.01734 13.2771 3.90864 13.117 3.6144C12.9569 3.32017 13.0656 2.95187 13.3599 2.79175L15.6187 1.56264C15.913 1.40256 16.2813 1.51126 16.4414 1.8055C16.6015 2.09969 16.4928 2.46803 16.1985 2.62811Z" fill="#61DB99"/>
<path d="M20.3098 17.0542L18.0682 14.8126C17.7519 14.4682 17.2981 14.2522 16.7936 14.2522C15.838 14.2522 15.0634 15.0269 15.0634 15.9824C15.0634 16.4869 15.2794 16.9408 15.6238 17.257L20.3098 21.943V17.0542H20.3098Z" fill="url(#paint11_linear_11_2813)"/>
<path d="M16.7934 17.7125C17.749 17.7125 18.5237 16.9378 18.5237 15.9822C18.5237 15.0266 17.749 14.252 16.7934 14.252C15.8378 14.252 15.0632 15.0266 15.0632 15.9822C15.0632 16.9378 15.8378 17.7125 16.7934 17.7125Z" fill="url(#paint12_linear_11_2813)"/>
<path d="M16.7934 17.1763C17.4529 17.1763 17.9875 16.6417 17.9875 15.9822C17.9875 15.3227 17.4529 14.7881 16.7934 14.7881C16.1339 14.7881 15.5993 15.3227 15.5993 15.9822C15.5993 16.6417 16.1339 17.1763 16.7934 17.1763Z" fill="url(#paint13_linear_11_2813)"/>
<path d="M16.3398 15.7757C16.4762 15.7757 16.5869 15.665 16.5869 15.5286C16.5869 15.3921 16.4762 15.2815 16.3398 15.2815C16.2033 15.2815 16.0927 15.3921 16.0927 15.5286C16.0927 15.665 16.2033 15.7757 16.3398 15.7757Z" fill="url(#paint14_linear_11_2813)"/>
<path d="M17.2471 15.7757C17.3835 15.7757 17.4942 15.665 17.4942 15.5286C17.4942 15.3921 17.3835 15.2815 17.2471 15.2815C17.1106 15.2815 17 15.3921 17 15.5286C17 15.665 17.1106 15.7757 17.2471 15.7757Z" fill="url(#paint15_linear_11_2813)"/>
<path d="M16.3398 16.6834C16.4762 16.6834 16.5869 16.5727 16.5869 16.4363C16.5869 16.2998 16.4762 16.1892 16.3398 16.1892C16.2033 16.1892 16.0927 16.2998 16.0927 16.4363C16.0927 16.5727 16.2033 16.6834 16.3398 16.6834Z" fill="url(#paint16_linear_11_2813)"/>
<path d="M17.2471 16.6834C17.3835 16.6834 17.4942 16.5727 17.4942 16.4363C17.4942 16.2998 17.3835 16.1892 17.2471 16.1892C17.1106 16.1892 17 16.2998 17 16.4363C17 16.5727 17.1106 16.6834 17.2471 16.6834Z" fill="url(#paint17_linear_11_2813)"/>
</g>
<defs>
<linearGradient id="paint0_linear_11_2813" x1="12.3569" y1="2.14516" x2="12.2294" y2="5.88419" gradientUnits="userSpaceOnUse">
<stop stop-color="#FFB92D"/>
<stop offset="1" stop-color="#F59500"/>
</linearGradient>
<linearGradient id="paint1_linear_11_2813" x1="12.9683" y1="4.62778" x2="12.6211" y2="7.49219" gradientUnits="userSpaceOnUse">
<stop stop-color="#FFB92D"/>
<stop offset="1" stop-color="#F59500"/>
</linearGradient>
<linearGradient id="paint2_linear_11_2813" x1="11.8671" y1="4.71242" x2="11.8671" y2="6.89449" gradientUnits="userSpaceOnUse">
<stop stop-color="#A7F3CE"/>
<stop offset="1" stop-color="#61DB99"/>
</linearGradient>
<linearGradient id="paint3_linear_11_2813" x1="11.9997" y1="8.48966" x2="11.9997" y2="14.6128" gradientUnits="userSpaceOnUse">
<stop stop-color="#FF4C54"/>
<stop offset="1" stop-color="#BE3F45"/>
</linearGradient>
<linearGradient id="paint4_linear_11_2813" x1="11.9997" y1="13.0364" x2="11.9997" y2="22.4931" gradientUnits="userSpaceOnUse">
<stop stop-color="#FF4C54"/>
<stop offset="1" stop-color="#BE3F45"/>
</linearGradient>
<linearGradient id="paint5_linear_11_2813" x1="21.6781" y1="14.9705" x2="20.0848" y2="14.9705" gradientUnits="userSpaceOnUse">
<stop stop-color="#BE3F45" stop-opacity="0"/>
<stop offset="1" stop-color="#BE3F45"/>
</linearGradient>
<linearGradient id="paint6_linear_11_2813" x1="7.4278" y1="13.3347" x2="15.5335" y2="17.0738" gradientUnits="userSpaceOnUse">
<stop stop-color="#FFB92D"/>
<stop offset="1" stop-color="#F59500"/>
</linearGradient>
<linearGradient id="paint7_linear_11_2813" x1="10.4361" y1="21.6598" x2="10.101" y2="24.2207" gradientUnits="userSpaceOnUse">
<stop stop-color="#BE3F45" stop-opacity="0"/>
<stop offset="1" stop-color="#BE3F45"/>
</linearGradient>
<linearGradient id="paint8_linear_11_2813" x1="2.1026" y1="6.48128" x2="2.1026" y2="22.8579" gradientUnits="userSpaceOnUse">
<stop stop-color="#FFF465"/>
<stop offset="1" stop-color="#FFE600"/>
</linearGradient>
<linearGradient id="paint9_linear_11_2813" x1="11.5166" y1="6.4817" x2="11.5166" y2="22.8239" gradientUnits="userSpaceOnUse">
<stop stop-color="#FFF465"/>
<stop offset="1" stop-color="#FFE600"/>
</linearGradient>
<linearGradient id="paint10_linear_11_2813" x1="2.88075" y1="6.48089" x2="2.88075" y2="22.857" gradientUnits="userSpaceOnUse">
<stop stop-color="#FFF465"/>
<stop offset="1" stop-color="#FFE600"/>
</linearGradient>
<linearGradient id="paint11_linear_11_2813" x1="19.1026" y1="18.292" x2="14.2538" y2="13.4432" gradientUnits="userSpaceOnUse">
<stop stop-color="#BE3F45" stop-opacity="0"/>
<stop offset="1" stop-color="#BE3F45"/>
</linearGradient>
<linearGradient id="paint12_linear_11_2813" x1="16.793" y1="14.8963" x2="16.793" y2="17.3984" gradientUnits="userSpaceOnUse">
<stop stop-color="#FF4C54"/>
<stop offset="1" stop-color="#BE3F45"/>
</linearGradient>
<linearGradient id="paint13_linear_11_2813" x1="16.7931" y1="16.732" x2="16.7931" y2="15.0055" gradientUnits="userSpaceOnUse">
<stop stop-color="#FF4C54"/>
<stop offset="1" stop-color="#BE3F45"/>
</linearGradient>
<linearGradient id="paint14_linear_11_2813" x1="13.9976" y1="5.18684" x2="14.4917" y2="7.36891" gradientUnits="userSpaceOnUse">
<stop stop-color="#A7F3CE"/>
<stop offset="1" stop-color="#61DB99"/>
</linearGradient>
<linearGradient id="paint15_linear_11_2813" x1="14.9049" y1="5.18694" x2="15.399" y2="7.36901" gradientUnits="userSpaceOnUse">
<stop stop-color="#A7F3CE"/>
<stop offset="1" stop-color="#61DB99"/>
</linearGradient>
<linearGradient id="paint16_linear_11_2813" x1="13.8021" y1="5.23107" x2="14.2962" y2="7.41314" gradientUnits="userSpaceOnUse">
<stop stop-color="#A7F3CE"/>
<stop offset="1" stop-color="#61DB99"/>
</linearGradient>
<linearGradient id="paint17_linear_11_2813" x1="14.7094" y1="5.23117" x2="15.2035" y2="7.41324" gradientUnits="userSpaceOnUse">
<stop stop-color="#A7F3CE"/>
<stop offset="1" stop-color="#61DB99"/>
</linearGradient>
<clipPath id="clip0_11_2813">
<rect width="24" height="24" fill="white"/>
</clipPath>
</defs>
</svg>
