<svg width="24" height="24" viewBox="0 0 24 24" fill="none" xmlns="http://www.w3.org/2000/svg">
<g clip-path="url(#clip0_11_2836)">
<path d="M17.0504 23.8108L21.5888 19.6192C21.892 19.3392 21.892 18.8602 21.5888 18.5802L17.0504 14.3885C16.5974 13.9702 15.8633 14.2915 15.8633 14.9081V16.6932H9.0702C8.75098 16.6932 8.49218 16.952 8.49218 17.2713V20.928C8.49218 21.2472 8.75098 21.506 9.0702 21.506H15.8633V23.2912C15.8633 23.9079 16.5974 24.2292 17.0504 23.8108Z" fill="#48ACFF"/>
<path d="M21.5888 19.6195L17.0503 23.8111C16.5975 24.2292 15.8634 23.9081 15.8634 23.2912V22.3987C18.0314 22.0584 19.6894 20.182 19.6894 17.9184C19.6894 17.483 19.628 17.062 19.5136 16.6636L21.5888 18.5803C21.892 18.8601 21.892 19.3392 21.5888 19.6195Z" fill="#229BFF"/>
<path d="M21.5888 19.6194L21.3342 19.8543H8.49237V17.2715C8.49237 16.9522 8.75112 16.693 9.07034 16.693H15.8635V14.908C15.8635 14.2916 16.5975 13.97 17.0503 14.3886L21.5888 18.5802C21.8921 18.86 21.8921 19.3391 21.5888 19.6194Z" fill="#229BFF"/>
<path d="M6.94964 9.61138L2.41115 5.41977C2.10796 5.13974 2.10796 4.66072 2.41115 4.38069L6.94959 0.18908C7.40259 -0.229279 8.13665 0.0920024 8.13665 0.708596V2.49378H14.9298C15.249 2.49378 15.5078 2.75258 15.5078 3.0718V6.72856C15.5078 7.04778 15.249 7.30658 14.9298 7.30658H8.13665V9.09177C8.1367 9.70846 7.40264 10.0297 6.94964 9.61138Z" fill="#FF4881"/>
<path d="M15.5077 5.05678V3.07162C15.5077 2.7524 15.2489 2.49365 14.9297 2.49365H14.5224C14.5224 3.43162 13.7701 4.70011 12.1392 5.05678H15.5077Z" fill="#FE255F"/>
<path d="M12.1778 2.4939H8.08971C7.63366 2.4939 7.26401 2.8636 7.26401 3.3196C7.26401 3.77565 7.63371 4.1453 8.08971 4.1453H12.1778C12.6338 4.1453 13.0035 3.7756 13.0035 3.3196C13.0035 2.8636 12.6338 2.4939 12.1778 2.4939Z" fill="#FC709B"/>
<path d="M10.3657 2.4939H9.53684C9.08079 2.4939 8.71114 2.8636 8.71114 3.3196C8.71114 3.77565 9.08084 4.1453 9.53684 4.1453H10.3657C10.8217 4.1453 11.1914 3.7756 11.1914 3.3196C11.1914 2.8636 10.8217 2.4939 10.3657 2.4939Z" fill="#F7A6C1"/>
<path d="M22.5938 18.9431H1.40629C0.629623 18.9431 4.57764e-05 18.3136 4.57764e-05 17.5369V6.46289C4.57764e-05 5.68622 0.629623 5.05664 1.40629 5.05664H22.5938C23.3704 5.05664 24 5.68622 24 6.46289V17.5369C24 18.3135 23.3704 18.9431 22.5938 18.9431Z" fill="#29E088"/>
<path d="M24 6.46314V17.5369C24 18.3136 23.3705 18.9431 22.5938 18.9431H11.1352C16.6003 17.9583 20.746 13.178 20.746 7.4297C20.746 6.61688 20.663 5.82329 20.505 5.05688H22.5938C23.3705 5.05688 24 5.68642 24 6.46314Z" fill="#0CC166"/>
<path d="M24 13.7231V17.5369C24 18.3136 23.3705 18.9431 22.5938 18.9431H17.1469C20.1754 18.397 22.7044 16.4128 24 13.7231Z" fill="#04A550"/>
<path d="M22.3594 7.16626V16.365C22.3594 16.883 21.9399 17.3025 21.4219 17.3025H2.10942C1.85067 17.3025 1.64067 17.093 1.64067 16.8338V7.63501C1.64067 7.11704 2.0602 6.69751 2.57817 6.69751H21.8907C22.1494 6.69751 22.3594 6.90704 22.3594 7.16626Z" fill="#0CC166"/>
<path d="M22.3594 7.16626V16.365C22.3594 16.883 21.9399 17.3025 21.4219 17.3025H15.3263C18.585 15.2255 20.746 11.58 20.746 7.4297C20.746 7.1836 20.7385 6.93938 20.7235 6.69751H21.8906C22.1494 6.69751 22.3594 6.90704 22.3594 7.16626Z" fill="#04A550"/>
<path d="M12 16.5703C14.2532 16.5703 16.0797 14.5241 16.0797 12C16.0797 9.47589 14.2532 7.42969 12 7.42969C9.74689 7.42969 7.92036 9.47589 7.92036 12C7.92036 14.5241 9.74689 16.5703 12 16.5703Z" fill="#04A550"/>
<path d="M16.0796 12C16.0796 14.5243 14.2533 16.5704 12 16.5704C10.6575 16.5704 9.46691 15.8443 8.72394 14.7235C9.2705 14.9602 9.87331 15.091 10.5066 15.091C12.99 15.091 15.0033 13.0777 15.0033 10.5943C15.0033 9.74349 14.7671 8.94755 14.356 8.2688C15.3989 9.09614 16.0796 10.4593 16.0796 12Z" fill="#00893E"/>
<path d="M13.2431 11.9464L11.3121 10.9631C11.2799 10.9466 11.2599 10.914 11.2599 10.8779C11.2599 10.8251 11.3028 10.7823 11.3555 10.7823H12.6445C12.6972 10.7823 12.7401 10.8251 12.7401 10.8779C12.7401 11.2158 13.014 11.4897 13.3519 11.4897C13.6899 11.4897 13.9638 11.2158 13.9638 10.8779C13.9638 10.1504 13.3719 9.55848 12.6444 9.55848H12.6118V9.41655C12.6118 9.07863 12.3379 8.80469 12 8.80469C11.6621 8.80469 11.3881 9.07863 11.3881 9.41655V9.55848H11.3555C10.628 9.55848 10.0361 10.1504 10.0361 10.8779C10.0361 11.3767 10.3123 11.8273 10.7569 12.0536L12.6879 13.0369C12.7201 13.0534 12.7401 13.086 12.7401 13.1222C12.7401 13.1749 12.6972 13.2178 12.6445 13.2178H11.3555C11.3028 13.2178 11.2599 13.1749 11.2599 13.1222C11.2599 12.7842 10.986 12.5103 10.6481 12.5103C10.3101 12.5103 10.0362 12.7842 10.0362 13.1222C10.0362 13.8497 10.6281 14.4416 11.3556 14.4416H11.3882V14.5835C11.3882 14.9214 11.6621 15.1953 12 15.1953C12.3379 15.1953 12.6119 14.9214 12.6119 14.5835V14.4416H12.6445C13.372 14.4416 13.9639 13.8497 13.9639 13.1222C13.9639 12.6233 13.6877 12.1728 13.2431 11.9464Z" fill="#29E088"/>
<path d="M12.6979 11.6685L11.8574 11.2406C11.5563 11.0872 11.1878 11.2071 11.0345 11.5082C10.8812 11.8093 11.001 12.1777 11.3021 12.3311L12.1426 12.759C12.4437 12.9124 12.8122 12.7926 12.9655 12.4914C13.1188 12.1903 12.999 11.8219 12.6979 11.6685Z" fill="#79FF79"/>
<path d="M3.33051 9.32466H1.64067V7.63477C1.64067 7.11698 2.06039 6.69727 2.57817 6.69727H4.26806V8.38716C4.26801 8.90494 3.8483 9.32466 3.33051 9.32466Z" fill="#79FF79"/>
<path d="M22.3594 14.675V16.3649C22.3594 16.8829 21.9399 17.3024 21.4219 17.3024H19.732V15.6125C19.732 15.095 20.1516 14.675 20.6695 14.675H22.3594Z" fill="#79FF79"/>
<path d="M20.8016 8.96387H17.4144C17.0907 8.96387 16.8284 8.70155 16.8284 8.37793C16.8284 8.0543 17.0907 7.79199 17.4144 7.79199H20.8016C21.1252 7.79199 21.3875 8.0543 21.3875 8.37793C21.3875 8.70155 21.1252 8.96387 20.8016 8.96387Z" fill="#00893E"/>
<path d="M19.3452 7.79199H18.2734C17.9498 7.79199 17.6874 8.0543 17.6874 8.37793C17.6874 8.70155 17.9498 8.96387 18.2734 8.96387H19.3452C19.6688 8.96387 19.9312 8.70155 19.9312 8.37793C19.9312 8.05435 19.6688 7.79199 19.3452 7.79199Z" fill="#04A550"/>
<path d="M6.58564 16.208H3.19841C2.87479 16.208 2.61247 15.9457 2.61247 15.6221C2.61247 15.2984 2.87479 15.0361 3.19841 15.0361H6.58564C6.90927 15.0361 7.17158 15.2984 7.17158 15.6221C7.17158 15.9456 6.90922 16.208 6.58564 16.208Z" fill="#00893E"/>
<path d="M5.10908 15.0361H3.9366C3.61297 15.0361 3.35066 15.2984 3.35066 15.6221C3.35066 15.9457 3.61297 16.208 3.9366 16.208H5.10908C5.43271 16.208 5.69502 15.9457 5.69502 15.6221C5.69502 15.2984 5.43271 15.0361 5.10908 15.0361Z" fill="#04A550"/>
<path d="M14.9874 9.50781C15.3757 9.50781 15.6905 9.19301 15.6905 8.80469C15.6905 8.41636 15.3757 8.10156 14.9874 8.10156C14.599 8.10156 14.2842 8.41636 14.2842 8.80469C14.2842 9.19301 14.599 9.50781 14.9874 9.50781Z" fill="#79FF79"/>
<path d="M14.9874 15.8984C15.3757 15.8984 15.6905 15.5836 15.6905 15.1953C15.6905 14.807 15.3757 14.4922 14.9874 14.4922C14.599 14.4922 14.2842 14.807 14.2842 15.1953C14.2842 15.5836 14.599 15.8984 14.9874 15.8984Z" fill="#79FF79"/>
<path d="M9.01269 9.50781C9.40101 9.50781 9.71581 9.19301 9.71581 8.80469C9.71581 8.41636 9.40101 8.10156 9.01269 8.10156C8.62436 8.10156 8.30956 8.41636 8.30956 8.80469C8.30956 9.19301 8.62436 9.50781 9.01269 9.50781Z" fill="#79FF79"/>
<path d="M9.01269 15.8984C9.40101 15.8984 9.71581 15.5836 9.71581 15.1953C9.71581 14.807 9.40101 14.4922 9.01269 14.4922C8.62436 14.4922 8.30956 14.807 8.30956 15.1953C8.30956 15.5836 8.62436 15.8984 9.01269 15.8984Z" fill="#79FF79"/>
<path d="M16.1453 12.7031C16.5336 12.7031 16.8484 12.3883 16.8484 12C16.8484 11.6117 16.5336 11.2969 16.1453 11.2969C15.757 11.2969 15.4422 11.6117 15.4422 12C15.4422 12.3883 15.757 12.7031 16.1453 12.7031Z" fill="#29E088"/>
<path d="M7.85469 12.7031C8.24302 12.7031 8.55782 12.3883 8.55782 12C8.55782 11.6117 8.24302 11.2969 7.85469 11.2969C7.46637 11.2969 7.15157 11.6117 7.15157 12C7.15157 12.3883 7.46637 12.7031 7.85469 12.7031Z" fill="#29E088"/>
<path d="M14.2042 5.05688H6.06337C5.61032 5.05688 5.24306 5.42415 5.24306 5.8772C5.24306 6.33024 5.61032 6.69751 6.06337 6.69751H14.2042C14.6572 6.69751 15.0245 6.33024 15.0245 5.8772C15.0245 5.42415 14.6572 5.05688 14.2042 5.05688Z" fill="#79FF79"/>
<path d="M11.5253 5.05688H8.29091C7.83786 5.05688 7.4706 5.42415 7.4706 5.8772C7.4706 6.33024 7.83786 6.69751 8.29091 6.69751H11.5253C11.9783 6.69751 12.3456 6.33024 12.3456 5.8772C12.3456 5.42415 11.9783 5.05688 11.5253 5.05688Z" fill="#C2FFC2"/>
<path d="M1.64067 15.9308V11.8181C1.64067 11.3651 1.27341 10.9978 0.820358 10.9978C0.367311 10.9978 4.57764e-05 11.3651 4.57764e-05 11.8181V15.9308C4.57764e-05 16.3839 0.367311 16.7511 0.820358 16.7511C1.27341 16.7511 1.64067 16.3839 1.64067 15.9308Z" fill="#79FF79"/>
<path d="M4.57764e-05 13.1311V13.7103C4.57764e-05 14.1633 0.367311 14.5306 0.820358 14.5306C1.27341 14.5306 1.64067 14.1633 1.64067 13.7103V13.1311C1.64067 12.6781 1.27341 12.3108 0.820358 12.3108C0.367311 12.3108 4.57764e-05 12.6781 4.57764e-05 13.1311Z" fill="#C2FFC2"/>
<path d="M14.0708 19.8542H10.3577C9.90167 19.8542 9.53201 20.224 9.53201 20.68C9.53201 21.136 9.90172 21.5057 10.3577 21.5057H14.0708C14.5268 21.5057 14.8965 21.136 14.8965 20.68C14.8965 20.2239 14.5268 19.8542 14.0708 19.8542Z" fill="#7CBAF7"/>
<path d="M12.3434 19.8542H11.5145C11.0585 19.8542 10.6888 20.224 10.6888 20.68C10.6888 21.136 11.0585 21.5057 11.5145 21.5057H12.3434C12.7994 21.5057 13.1691 21.136 13.1691 20.68C13.1691 20.2239 12.7994 19.8542 12.3434 19.8542Z" fill="#A9CFFC"/>
<path d="M22.3594 16.1091V16.3651C22.3594 16.883 21.9399 17.3026 21.4219 17.3026H21.0009C21.4913 16.9487 21.9459 16.5484 22.3594 16.1091Z" fill="#0CC166"/>
</g>
<defs>
<clipPath id="clip0_11_2836">
<rect width="24" height="24" fill="white"/>
</clipPath>
</defs>
</svg>
