<svg width="24" height="24" viewBox="0 0 24 24" fill="none" xmlns="http://www.w3.org/2000/svg">
<g clip-path="url(#clip0_11_2745)">
<path d="M24 19.2369L16.4042 14.4507V16.5269H12L11.4996 19.0419L12 21.9468H16.4042V24.0231L24 19.2369Z" fill="#0BD5DD"/>
<path d="M10.3777 16.527L5.83777 12.113V17.2308C5.83777 19.8313 7.95337 21.9469 10.5538 21.9469H12V16.527H10.3777Z" fill="#00E5EE"/>
<path d="M13.4462 2.12305H12L10.999 4.52759L12 7.54297H13.6223L18.1622 11.9569V6.83911C18.1622 4.23865 16.0466 2.12305 13.4462 2.12305Z" fill="#0DD141"/>
<path d="M7.59595 2.12311V0.046875L0 4.83307L7.59595 9.61908V7.54303H12V2.12311H7.59595Z" fill="#52E161"/>
<path d="M12 5.88037L11.4996 12.1834L12 18.1895C15.399 18.1895 18.1545 15.4339 18.1545 12.0349C18.1545 8.63593 15.399 5.88037 12 5.88037Z" fill="#FC7419"/>
<path d="M5.84564 12.0349C5.84564 15.4339 8.60101 18.1895 12 18.1895V5.88037C8.60101 5.88037 5.84564 8.63593 5.84564 12.0349Z" fill="#FDA102"/>
<path d="M12 5.17651L11.4996 5.67712L12 6.58423C15.0055 6.58423 17.4507 9.02942 17.4507 12.0349C17.4507 15.0404 15.0055 17.4856 12 17.4856L11.4996 18.1895L12 18.8931C15.7817 18.8931 18.8582 15.8166 18.8582 12.0349C18.8582 8.25323 15.7817 5.17651 12 5.17651Z" fill="#FDAE02"/>
<path d="M6.54932 12.0349C6.54932 9.02942 8.99451 6.58423 12 6.58423V5.17651C8.21832 5.17651 5.14178 8.25323 5.14178 12.0349C5.14178 15.8166 8.21832 18.8931 12 18.8931V17.4856C8.99451 17.4856 6.54932 15.0404 6.54932 12.0349Z" fill="#FDCB02"/>
<path d="M12.15 10.6036C12.6194 10.6036 13.1197 10.7345 13.6505 11.0038L14.1969 9.68787C13.7584 9.44159 13.2043 9.29547 12.6348 9.24164V8.41821H12L11.4996 10.1815L12 10.6087C12.0467 10.6056 12.0961 10.6036 12.15 10.6036Z" fill="#FDD535"/>
<path d="M12 11.2832L11.4996 12.1833L12 12.7946C12.3708 12.879 12.6348 12.9722 12.6348 13.1738C12.6348 13.3503 12.4653 13.4563 12 13.4653L11.4996 14.1854L12 15.6516H12.6348V14.7974C13.8276 14.5897 14.4278 13.8663 14.4278 13.0352C14.4278 11.5948 12.8606 11.483 12 11.2832Z" fill="#FDD535"/>
<path d="M11.9346 13.4662C11.3421 13.4662 10.665 13.2737 10.157 12.9736L9.5722 14.2971C10.034 14.5818 10.7803 14.7897 11.5499 14.8358V15.6516H12V13.4653C11.9786 13.4656 11.9573 13.4662 11.9346 13.4662Z" fill="#FEEA9A"/>
<path d="M11.5499 9.25702C10.2878 9.4339 9.6568 10.165 9.6568 11.0346C9.6568 12.4451 11.1255 12.5954 12 12.7946V11.2833C11.6744 11.2078 11.4498 11.1196 11.4498 10.9421C11.4498 10.7762 11.5875 10.6356 12 10.6087V8.41821H11.5499V9.25702Z" fill="#FEEA9A"/>
</g>
<defs>
<clipPath id="clip0_11_2745">
<rect width="24" height="24" fill="white"/>
</clipPath>
</defs>
</svg>
